<?xml version="1.0" encoding="UTF-8" standalone="no"?>
<!-- Created with Inkscape (http://www.inkscape.org/) -->

<svg
   width="256"
   height="128"
   viewBox="0 0 256 128"
   version="1.1"
   id="svg5"
   inkscape:version="1.2.2 (b0a8486541, 2022-12-01)"
   sodipodi:docname="logo.svg"
   xmlns:inkscape="http://www.inkscape.org/namespaces/inkscape"
   xmlns:sodipodi="http://sodipodi.sourceforge.net/DTD/sodipodi-0.dtd"
   xmlns="http://www.w3.org/2000/svg"
   xmlns:svg="http://www.w3.org/2000/svg">
  <sodipodi:namedview
     id="namedview7"
     pagecolor="#505050"
     bordercolor="#eeee44"
     borderopacity="1"
     inkscape:pageshadow="0"
     inkscape:pageopacity="0"
     inkscape:pagecheckerboard="0"
     inkscape:document-units="px"
     showgrid="false"
     units="px"
     width="793.70081px"
     inkscape:showpageshadow="0"
     inkscape:deskcolor="#505050"
     inkscape:zoom="2.6074563"
     inkscape:cx="124.64255"
     inkscape:cy="180.44406"
     inkscape:window-width="2560"
     inkscape:window-height="1408"
     inkscape:window-x="2360"
     inkscape:window-y="32"
     inkscape:window-maximized="0"
     inkscape:current-layer="layer1" />
  <defs
     id="defs2" />
  <g
     inkscape:label="Layer 1"
     inkscape:groupmode="layer"
     id="layer1">
    <text
       xml:space="preserve"
       style="font-size:40px;line-height:1.25;font-family:sans-serif;letter-spacing:0px"
       x="26.576271"
       y="15.457627"
       id="text1006"><tspan
         sodipodi:role="line"
         id="tspan1004"></tspan></text>
    <g
       aria-label="            __                  
           /\ \                 
 __  __  __\ \ \___   __  __    
/\ \/\ \/\ \\ \  _ `\/\ \/\ \   
\ \ \_/ \_/ \\ \ \ \ \ \ \_\ \  
 \ \___x___/' \ \_\ \_\/`____ \ 
  \/__//__/    \/_/\/_/`/___/&gt; \
                          /\___/
                          \/__/ "
       id="text1092"
       style="font-weight:bold;font-size:12px;line-height:1.25;font-family:monospace;-inkscape-font-specification:'monospace Bold';letter-spacing:0px;fill:#61afef;stroke-width:1.6;stroke:#61afef;stroke-opacity:1;stroke-linejoin:round;stroke-dasharray:none;stroke-linecap:round">
      <path
         d="m 99.799988,5.122 v -1.44 h 7.200002 v 1.44 z"
         id="path2133"
         style="stroke:#61afef;stroke-opacity:1;stroke-linejoin:round;stroke-width:1.6;stroke-dasharray:none;stroke-linecap:round" />
      <path
         d="m 106.99999,5.122 v -1.44 h 7.2 v 1.44 z"
         id="path2135"
         style="stroke:#61afef;stroke-opacity:1;stroke-linejoin:round;stroke-width:1.6;stroke-dasharray:none;stroke-linecap:round" />
      <path
         d="m 93.799983,17.926 3.3,-8.664 h 1.5 l -3.288,8.664 z"
         id="path2137"
         style="stroke:#61afef;stroke-opacity:1;stroke-linejoin:round;stroke-width:1.6;stroke-dasharray:none;stroke-linecap:round" />
      <path
         d="m 105.79999,17.926 -3.3,-8.664 h -1.5 l 3.288,8.664 z"
         id="path2139"
         style="stroke:#61afef;stroke-opacity:1;stroke-linejoin:round;stroke-width:1.6;stroke-dasharray:none;stroke-linecap:round" />
      <path
         d="m 120.2,17.926 -3.3,-8.664 h -1.5 l 3.288,8.664 z"
         id="path2141"
         style="stroke:#61afef;stroke-opacity:1;stroke-linejoin:round;stroke-width:1.6;stroke-dasharray:none;stroke-linecap:round" />
      <path
         d="m 20.599937,35.122 v -1.44 h 7.2 v 1.44 z"
         id="path2143"
         style="stroke:#61afef;stroke-opacity:1;stroke-linejoin:round;stroke-width:1.6;stroke-dasharray:none;stroke-linecap:round" />
      <path
         d="m 27.799942,35.122 v -1.44 h 7.2 v 1.44 z"
         id="path2145"
         style="stroke:#61afef;stroke-opacity:1;stroke-linejoin:round;stroke-width:1.6;stroke-dasharray:none;stroke-linecap:round" />
      <path
         d="m 49.399956,35.122 v -1.44 h 7.2 v 1.44 z"
         id="path2147"
         style="stroke:#61afef;stroke-opacity:1;stroke-linejoin:round;stroke-width:1.6;stroke-dasharray:none;stroke-linecap:round" />
      <path
         d="m 56.59996,35.122 v -1.44 h 7.2 v 1.44 z"
         id="path2149"
         style="stroke:#61afef;stroke-opacity:1;stroke-linejoin:round;stroke-width:1.6;stroke-dasharray:none;stroke-linecap:round" />
      <path
         d="m 78.199974,35.122 v -1.44 h 7.2 v 1.44 z"
         id="path2151"
         style="stroke:#61afef;stroke-opacity:1;stroke-linejoin:round;stroke-width:1.6;stroke-dasharray:none;stroke-linecap:round" />
      <path
         d="m 85.399979,35.122 v -1.44 h 7.2 v 1.44 z"
         id="path2153"
         style="stroke:#61afef;stroke-opacity:1;stroke-linejoin:round;stroke-width:1.6;stroke-dasharray:none;stroke-linecap:round" />
      <path
         d="m 98.599983,32.926 -3.3,-8.664 h -1.5 l 3.288,8.664 z"
         id="path2155"
         style="stroke:#61afef;stroke-opacity:1;stroke-linejoin:round;stroke-width:1.6;stroke-dasharray:none;stroke-linecap:round" />
      <path
         d="m 112.99999,32.926 -3.3,-8.664 h -1.5 l 3.288,8.664 z"
         id="path2157"
         style="stroke:#61afef;stroke-opacity:1;stroke-linejoin:round;stroke-width:1.6;stroke-dasharray:none;stroke-linecap:round" />
      <path
         d="m 127.4,32.926 -3.3,-8.664 h -1.5 l 3.288,8.664 z"
         id="path2159"
         style="stroke:#61afef;stroke-opacity:1;stroke-linejoin:round;stroke-width:1.6;stroke-dasharray:none;stroke-linecap:round" />
      <path
         d="m 128.60001,35.122 v -1.44 h 7.2 v 1.44 z"
         id="path2161"
         style="stroke:#61afef;stroke-opacity:1;stroke-linejoin:round;stroke-width:1.6;stroke-dasharray:none;stroke-linecap:round" />
      <path
         d="m 135.80001,35.122 v -1.44 h 7.2 v 1.44 z"
         id="path2163"
         style="stroke:#61afef;stroke-opacity:1;stroke-linejoin:round;stroke-width:1.6;stroke-dasharray:none;stroke-linecap:round" />
      <path
         d="m 143.00002,35.122 v -1.44 h 7.2 v 1.44 z"
         id="path2165"
         style="stroke:#61afef;stroke-opacity:1;stroke-linejoin:round;stroke-width:1.6;stroke-dasharray:none;stroke-linecap:round" />
      <path
         d="m 171.80003,35.122 v -1.44 h 7.2 v 1.44 z"
         id="path2167"
         style="stroke:#61afef;stroke-opacity:1;stroke-linejoin:round;stroke-width:1.6;stroke-dasharray:none;stroke-linecap:round" />
      <path
         d="m 179.00003,35.122 v -1.44 h 7.2 v 1.44 z"
         id="path2169"
         style="stroke:#61afef;stroke-opacity:1;stroke-linejoin:round;stroke-width:1.6;stroke-dasharray:none;stroke-linecap:round" />
      <path
         d="m 200.60005,35.122 v -1.44 h 7.2 v 1.44 z"
         id="path2171"
         style="stroke:#61afef;stroke-opacity:1;stroke-linejoin:round;stroke-width:1.6;stroke-dasharray:none;stroke-linecap:round" />
      <path
         d="m 207.80005,35.122 v -1.44 h 7.2 v 1.44 z"
         id="path2173"
         style="stroke:#61afef;stroke-opacity:1;stroke-linejoin:round;stroke-width:1.6;stroke-dasharray:none;stroke-linecap:round" />
      <path
         d="m 14.599933,47.926 3.3,-8.664 h 1.5 l -3.288,8.664 z"
         id="path2175"
         style="stroke:#61afef;stroke-opacity:1;stroke-linejoin:round;stroke-width:1.6;stroke-dasharray:none;stroke-linecap:round" />
      <path
         d="m 26.599937,47.926 -3.3,-8.664 h -1.5 l 3.288,8.664 z"
         id="path2177"
         style="stroke:#61afef;stroke-opacity:1;stroke-linejoin:round;stroke-width:1.6;stroke-dasharray:none;stroke-linecap:round" />
      <path
         d="m 40.999947,47.926 -3.3,-8.664 h -1.5 l 3.288,8.664 z"
         id="path2179"
         style="stroke:#61afef;stroke-opacity:1;stroke-linejoin:round;stroke-width:1.6;stroke-dasharray:none;stroke-linecap:round" />
      <path
         d="m 43.399951,47.926 3.3,-8.664 h 1.5 l -3.288,8.664 z"
         id="path2181"
         style="stroke:#61afef;stroke-opacity:1;stroke-linejoin:round;stroke-width:1.6;stroke-dasharray:none;stroke-linecap:round" />
      <path
         d="m 55.399956,47.926 -3.3,-8.664 h -1.5 l 3.288,8.664 z"
         id="path2183"
         style="stroke:#61afef;stroke-opacity:1;stroke-linejoin:round;stroke-width:1.6;stroke-dasharray:none;stroke-linecap:round" />
      <path
         d="m 69.799965,47.926 -3.3,-8.664 h -1.5 l 3.288,8.664 z"
         id="path2185"
         style="stroke:#61afef;stroke-opacity:1;stroke-linejoin:round;stroke-width:1.6;stroke-dasharray:none;stroke-linecap:round" />
      <path
         d="m 72.199969,47.926 3.3,-8.664 h 1.5 l -3.288,8.664 z"
         id="path2187"
         style="stroke:#61afef;stroke-opacity:1;stroke-linejoin:round;stroke-width:1.6;stroke-dasharray:none;stroke-linecap:round" />
      <path
         d="m 84.199974,47.926 -3.3,-8.664 h -1.5 l 3.288,8.664 z"
         id="path2189"
         style="stroke:#61afef;stroke-opacity:1;stroke-linejoin:round;stroke-width:1.6;stroke-dasharray:none;stroke-linecap:round" />
      <path
         d="m 98.599983,47.926 -3.3,-8.664 h -1.5 l 3.288,8.664 z"
         id="path2191"
         style="stroke:#61afef;stroke-opacity:1;stroke-linejoin:round;stroke-width:1.6;stroke-dasharray:none;stroke-linecap:round" />
      <path
         d="m 105.79999,47.926 -3.3,-8.664 h -1.5 l 3.288,8.664 z"
         id="path2193"
         style="stroke:#61afef;stroke-opacity:1;stroke-linejoin:round;stroke-width:1.6;stroke-dasharray:none;stroke-linecap:round" />
      <path
         d="m 120.2,47.926 -3.3,-8.664 h -1.5 l 3.288,8.664 z"
         id="path2195"
         style="stroke:#61afef;stroke-opacity:1;stroke-linejoin:round;stroke-width:1.6;stroke-dasharray:none;stroke-linecap:round" />
      <path
         d="m 135.80001,50.122 v -1.44 h 7.2 v 1.44 z"
         id="path2197"
         style="stroke:#61afef;stroke-opacity:1;stroke-linejoin:round;stroke-width:1.6;stroke-dasharray:none;stroke-linecap:round" />
      <path
         d="m 153.76401,40.606 q -0.192,-0.144 -0.468,-0.384 -0.264,-0.24 -0.552,-0.504 -0.276,-0.264 -0.528,-0.504 -0.24,-0.252 -0.384,-0.42 v -0.108 h 1.896 q 0.144,0.252 0.36,0.588 0.216,0.336 0.444,0.66 0.228,0.312 0.384,0.516 v 0.156 z"
         id="path2199"
         style="stroke:#61afef;stroke-opacity:1;stroke-linejoin:round;stroke-width:1.6;stroke-dasharray:none;stroke-linecap:round" />
      <path
         d="m 163.40002,47.926 -3.3,-8.664 h -1.5 l 3.288,8.664 z"
         id="path2201"
         style="stroke:#61afef;stroke-opacity:1;stroke-linejoin:round;stroke-width:1.6;stroke-dasharray:none;stroke-linecap:round" />
      <path
         d="m 165.80004,47.926 3.3,-8.664 h 1.5 l -3.288,8.664 z"
         id="path2203"
         style="stroke:#61afef;stroke-opacity:1;stroke-linejoin:round;stroke-width:1.6;stroke-dasharray:none;stroke-linecap:round" />
      <path
         d="m 177.80003,47.926 -3.3,-8.664 h -1.5 l 3.288,8.664 z"
         id="path2205"
         style="stroke:#61afef;stroke-opacity:1;stroke-linejoin:round;stroke-width:1.6;stroke-dasharray:none;stroke-linecap:round" />
      <path
         d="m 192.20004,47.926 -3.3,-8.664 h -1.5 l 3.288,8.664 z"
         id="path2207"
         style="stroke:#61afef;stroke-opacity:1;stroke-linejoin:round;stroke-width:1.6;stroke-dasharray:none;stroke-linecap:round" />
      <path
         d="m 194.60005,47.926 3.3,-8.664 h 1.5 l -3.288,8.664 z"
         id="path2209"
         style="stroke:#61afef;stroke-opacity:1;stroke-linejoin:round;stroke-width:1.6;stroke-dasharray:none;stroke-linecap:round" />
      <path
         d="m 206.60005,47.926 -3.3,-8.664 h -1.5 l 3.288,8.664 z"
         id="path2211"
         style="stroke:#61afef;stroke-opacity:1;stroke-linejoin:round;stroke-width:1.6;stroke-dasharray:none;stroke-linecap:round" />
      <path
         d="m 221.00006,47.926 -3.3,-8.664 h -1.5 l 3.288,8.664 z"
         id="path2213"
         style="stroke:#61afef;stroke-opacity:1;stroke-linejoin:round;stroke-width:1.6;stroke-dasharray:none;stroke-linecap:round" />
      <path
         d="m 19.399933,62.926 -3.3,-8.664 h -1.5 l 3.288,8.664 z"
         id="path2215"
         style="stroke:#61afef;stroke-opacity:1;stroke-linejoin:round;stroke-width:1.6;stroke-dasharray:none;stroke-linecap:round" />
      <path
         d="m 33.799942,62.926 -3.3,-8.664 h -1.5 l 3.288,8.664 z"
         id="path2217"
         style="stroke:#61afef;stroke-opacity:1;stroke-linejoin:round;stroke-width:1.6;stroke-dasharray:none;stroke-linecap:round" />
      <path
         d="m 48.199951,62.926 -3.3,-8.664 h -1.5 l 3.288,8.664 z"
         id="path2219"
         style="stroke:#61afef;stroke-opacity:1;stroke-linejoin:round;stroke-width:1.6;stroke-dasharray:none;stroke-linecap:round" />
      <path
         d="m 49.399956,65.122 v -1.44 h 7.2 v 1.44 z"
         id="path2221"
         style="stroke:#61afef;stroke-opacity:1;stroke-linejoin:round;stroke-width:1.6;stroke-dasharray:none;stroke-linecap:round" />
      <path
         d="m 57.79996,62.926 3.3,-8.664 h 1.5 l -3.288,8.664 z"
         id="path2223"
         style="stroke:#61afef;stroke-opacity:1;stroke-linejoin:round;stroke-width:1.6;stroke-dasharray:none;stroke-linecap:round" />
      <path
         d="m 76.999969,62.926 -3.3,-8.664 h -1.5 l 3.288,8.664 z"
         id="path2225"
         style="stroke:#61afef;stroke-opacity:1;stroke-linejoin:round;stroke-width:1.6;stroke-dasharray:none;stroke-linecap:round" />
      <path
         d="m 78.199974,65.122 v -1.44 h 7.2 v 1.44 z"
         id="path2227"
         style="stroke:#61afef;stroke-opacity:1;stroke-linejoin:round;stroke-width:1.6;stroke-dasharray:none;stroke-linecap:round" />
      <path
         d="m 86.599979,62.926 3.3,-8.664 h 1.5 l -3.288,8.664 z"
         id="path2229"
         style="stroke:#61afef;stroke-opacity:1;stroke-linejoin:round;stroke-width:1.6;stroke-dasharray:none;stroke-linecap:round" />
      <path
         d="m 105.79999,62.926 -3.3,-8.664 h -1.5 l 3.288,8.664 z"
         id="path2231"
         style="stroke:#61afef;stroke-opacity:1;stroke-linejoin:round;stroke-width:1.6;stroke-dasharray:none;stroke-linecap:round" />
      <path
         d="m 112.99999,62.926 -3.3,-8.664 h -1.5 l 3.288,8.664 z"
         id="path2233"
         style="stroke:#61afef;stroke-opacity:1;stroke-linejoin:round;stroke-width:1.6;stroke-dasharray:none;stroke-linecap:round" />
      <path
         d="m 127.4,62.926 -3.3,-8.664 h -1.5 l 3.288,8.664 z"
         id="path2235"
         style="stroke:#61afef;stroke-opacity:1;stroke-linejoin:round;stroke-width:1.6;stroke-dasharray:none;stroke-linecap:round" />
      <path
         d="m 141.80001,62.926 -3.3,-8.664 h -1.5 l 3.288,8.664 z"
         id="path2237"
         style="stroke:#61afef;stroke-opacity:1;stroke-linejoin:round;stroke-width:1.6;stroke-dasharray:none;stroke-linecap:round" />
      <path
         d="m 156.20001,62.926 -3.3,-8.664 h -1.5 l 3.288,8.664 z"
         id="path2239"
         style="stroke:#61afef;stroke-opacity:1;stroke-linejoin:round;stroke-width:1.6;stroke-dasharray:none;stroke-linecap:round" />
      <path
         d="m 170.60004,62.926 -3.3,-8.664 h -1.5 l 3.288,8.664 z"
         id="path2241"
         style="stroke:#61afef;stroke-opacity:1;stroke-linejoin:round;stroke-width:1.6;stroke-dasharray:none;stroke-linecap:round" />
      <path
         d="m 185.00003,62.926 -3.3,-8.664 h -1.5 l 3.288,8.664 z"
         id="path2243"
         style="stroke:#61afef;stroke-opacity:1;stroke-linejoin:round;stroke-width:1.6;stroke-dasharray:none;stroke-linecap:round" />
      <path
         d="m 199.40005,62.926 -3.3,-8.664 h -1.5 l 3.288,8.664 z"
         id="path2245"
         style="stroke:#61afef;stroke-opacity:1;stroke-linejoin:round;stroke-width:1.6;stroke-dasharray:none;stroke-linecap:round" />
      <path
         d="m 200.60005,65.122 v -1.44 h 7.2 v 1.44 z"
         id="path2247"
         style="stroke:#61afef;stroke-opacity:1;stroke-linejoin:round;stroke-width:1.6;stroke-dasharray:none;stroke-linecap:round" />
      <path
         d="m 213.80005,62.926 -3.3,-8.664 h -1.5 l 3.288,8.664 z"
         id="path2249"
         style="stroke:#61afef;stroke-opacity:1;stroke-linejoin:round;stroke-width:1.6;stroke-dasharray:none;stroke-linecap:round" />
      <path
         d="m 228.20007,62.926 -3.3,-8.664 h -1.5 l 3.288,8.664 z"
         id="path2251"
         style="stroke:#61afef;stroke-opacity:1;stroke-linejoin:round;stroke-width:1.6;stroke-dasharray:none;stroke-linecap:round" />
      <path
         d="m 26.599937,77.926 -3.3,-8.664 h -1.5 l 3.288,8.664 z"
         id="path2253"
         style="stroke:#61afef;stroke-opacity:1;stroke-linejoin:round;stroke-width:1.6;stroke-dasharray:none;stroke-linecap:round" />
      <path
         d="m 40.999947,77.926 -3.3,-8.664 h -1.5 l 3.288,8.664 z"
         id="path2255"
         style="stroke:#61afef;stroke-opacity:1;stroke-linejoin:round;stroke-width:1.6;stroke-dasharray:none;stroke-linecap:round" />
      <path
         d="m 42.199951,80.122 v -1.44 h 7.2 v 1.44 z"
         id="path2257"
         style="stroke:#61afef;stroke-opacity:1;stroke-linejoin:round;stroke-width:1.6;stroke-dasharray:none;stroke-linecap:round" />
      <path
         d="m 49.399956,80.122 v -1.44 h 7.2 v 1.44 z"
         id="path2259"
         style="stroke:#61afef;stroke-opacity:1;stroke-linejoin:round;stroke-width:1.6;stroke-dasharray:none;stroke-linecap:round" />
      <path
         d="m 56.59996,80.122 v -1.44 h 7.2 v 1.44 z"
         id="path2261"
         style="stroke:#61afef;stroke-opacity:1;stroke-linejoin:round;stroke-width:1.6;stroke-dasharray:none;stroke-linecap:round" />
      <path
         d="m 64.039965,77.878 2.316,-3.336 -2.208,-3.216 h 2.088 l 1.188,2.064 1.248,-2.064 h 2.088 l -2.256,3.216 2.256,3.336 h -2.088 l -1.236,-2.16 -1.308,2.16 z"
         id="path2263"
         style="stroke:#61afef;stroke-opacity:1;stroke-linejoin:round;stroke-width:1.6;stroke-dasharray:none;stroke-linecap:round" />
      <path
         d="m 70.999969,80.122 v -1.44 h 7.2 v 1.44 z"
         id="path2265"
         style="stroke:#61afef;stroke-opacity:1;stroke-linejoin:round;stroke-width:1.6;stroke-dasharray:none;stroke-linecap:round" />
      <path
         d="m 78.199974,80.122 v -1.44 h 7.2 v 1.44 z"
         id="path2267"
         style="stroke:#61afef;stroke-opacity:1;stroke-linejoin:round;stroke-width:1.6;stroke-dasharray:none;stroke-linecap:round" />
      <path
         d="m 85.399979,80.122 v -1.44 h 7.2 v 1.44 z"
         id="path2269"
         style="stroke:#61afef;stroke-opacity:1;stroke-linejoin:round;stroke-width:1.6;stroke-dasharray:none;stroke-linecap:round" />
      <path
         d="m 93.799983,77.926 3.3,-8.664 h 1.5 l -3.288,8.664 z"
         id="path2271"
         style="stroke:#61afef;stroke-opacity:1;stroke-linejoin:round;stroke-width:1.6;stroke-dasharray:none;stroke-linecap:round" />
      <path
         d="m 102.78799,72.406 -0.228,-3.096 h 1.668 l -0.228,3.096 z"
         id="path2273"
         style="stroke:#61afef;stroke-opacity:1;stroke-linejoin:round;stroke-width:1.6;stroke-dasharray:none;stroke-linecap:round" />
      <path
         d="m 120.2,77.926 -3.3,-8.664 h -1.5 l 3.288,8.664 z"
         id="path2275"
         style="stroke:#61afef;stroke-opacity:1;stroke-linejoin:round;stroke-width:1.6;stroke-dasharray:none;stroke-linecap:round" />
      <path
         d="m 134.60001,77.926 -3.3,-8.664 h -1.5 l 3.288,8.664 z"
         id="path2277"
         style="stroke:#61afef;stroke-opacity:1;stroke-linejoin:round;stroke-width:1.6;stroke-dasharray:none;stroke-linecap:round" />
      <path
         d="m 135.80001,80.122 v -1.44 h 7.2 v 1.44 z"
         id="path2279"
         style="stroke:#61afef;stroke-opacity:1;stroke-linejoin:round;stroke-width:1.6;stroke-dasharray:none;stroke-linecap:round" />
      <path
         d="m 149.00002,77.926 -3.3,-8.664 h -1.5 l 3.288,8.664 z"
         id="path2281"
         style="stroke:#61afef;stroke-opacity:1;stroke-linejoin:round;stroke-width:1.6;stroke-dasharray:none;stroke-linecap:round" />
      <path
         d="m 163.40002,77.926 -3.3,-8.664 h -1.5 l 3.288,8.664 z"
         id="path2283"
         style="stroke:#61afef;stroke-opacity:1;stroke-linejoin:round;stroke-width:1.6;stroke-dasharray:none;stroke-linecap:round" />
      <path
         d="m 164.60004,80.122 v -1.44 h 7.2 v 1.44 z"
         id="path2285"
         style="stroke:#61afef;stroke-opacity:1;stroke-linejoin:round;stroke-width:1.6;stroke-dasharray:none;stroke-linecap:round" />
      <path
         d="m 177.80003,77.926 -3.3,-8.664 h -1.5 l 3.288,8.664 z"
         id="path2287"
         style="stroke:#61afef;stroke-opacity:1;stroke-linejoin:round;stroke-width:1.6;stroke-dasharray:none;stroke-linecap:round" />
      <path
         d="m 180.20003,77.926 3.3,-8.664 h 1.5 l -3.288,8.664 z"
         id="path2289"
         style="stroke:#61afef;stroke-opacity:1;stroke-linejoin:round;stroke-width:1.6;stroke-dasharray:none;stroke-linecap:round" />
      <path
         d="m 189.76404,70.606 q -0.192,-0.144 -0.468,-0.384 -0.264,-0.24 -0.552,-0.504 -0.276,-0.264 -0.528,-0.504 -0.24,-0.252 -0.384,-0.42 v -0.108 h 1.896 q 0.144,0.252 0.36,0.588 0.216,0.336 0.444,0.66 0.228,0.312 0.384,0.516 v 0.156 z"
         id="path2291"
         style="stroke:#61afef;stroke-opacity:1;stroke-linejoin:round;stroke-width:1.6;stroke-dasharray:none;stroke-linecap:round" />
      <path
         d="m 193.40005,80.122 v -1.44 h 7.2 v 1.44 z"
         id="path2293"
         style="stroke:#61afef;stroke-opacity:1;stroke-linejoin:round;stroke-width:1.6;stroke-dasharray:none;stroke-linecap:round" />
      <path
         d="m 200.60005,80.122 v -1.44 h 7.2 v 1.44 z"
         id="path2295"
         style="stroke:#61afef;stroke-opacity:1;stroke-linejoin:round;stroke-width:1.6;stroke-dasharray:none;stroke-linecap:round" />
      <path
         d="m 207.80005,80.122 v -1.44 h 7.2 v 1.44 z"
         id="path2297"
         style="stroke:#61afef;stroke-opacity:1;stroke-linejoin:round;stroke-width:1.6;stroke-dasharray:none;stroke-linecap:round" />
      <path
         d="m 215.00006,80.122 v -1.44 h 7.2 v 1.44 z"
         id="path2299"
         style="stroke:#61afef;stroke-opacity:1;stroke-linejoin:round;stroke-width:1.6;stroke-dasharray:none;stroke-linecap:round" />
      <path
         d="m 235.40007,77.926 -3.3,-8.664 h -1.5 l 3.288,8.664 z"
         id="path2301"
         style="stroke:#61afef;stroke-opacity:1;stroke-linejoin:round;stroke-width:1.6;stroke-dasharray:none;stroke-linecap:round" />
      <path
         d="m 33.799942,92.926 -3.3,-8.664 h -1.5 l 3.288,8.664 z"
         id="path2303"
         style="stroke:#61afef;stroke-opacity:1;stroke-linejoin:round;stroke-width:1.6;stroke-dasharray:none;stroke-linecap:round" />
      <path
         d="m 36.199947,92.926 3.3,-8.664 h 1.5 l -3.288,8.664 z"
         id="path2305"
         style="stroke:#61afef;stroke-opacity:1;stroke-linejoin:round;stroke-width:1.6;stroke-dasharray:none;stroke-linecap:round" />
      <path
         d="m 42.199951,95.122 v -1.44 h 7.2 v 1.44 z"
         id="path2307"
         style="stroke:#61afef;stroke-opacity:1;stroke-linejoin:round;stroke-width:1.6;stroke-dasharray:none;stroke-linecap:round" />
      <path
         d="m 49.399956,95.122 v -1.44 h 7.2 v 1.44 z"
         id="path2309"
         style="stroke:#61afef;stroke-opacity:1;stroke-linejoin:round;stroke-width:1.6;stroke-dasharray:none;stroke-linecap:round" />
      <path
         d="m 57.79996,92.926 3.3,-8.664 h 1.5 l -3.288,8.664 z"
         id="path2311"
         style="stroke:#61afef;stroke-opacity:1;stroke-linejoin:round;stroke-width:1.6;stroke-dasharray:none;stroke-linecap:round" />
      <path
         d="m 64.999965,92.926 3.3,-8.664 h 1.5 l -3.288,8.664 z"
         id="path2313"
         style="stroke:#61afef;stroke-opacity:1;stroke-linejoin:round;stroke-width:1.6;stroke-dasharray:none;stroke-linecap:round" />
      <path
         d="m 70.999969,95.122 v -1.44 h 7.2 v 1.44 z"
         id="path2315"
         style="stroke:#61afef;stroke-opacity:1;stroke-linejoin:round;stroke-width:1.6;stroke-dasharray:none;stroke-linecap:round" />
      <path
         d="m 78.199974,95.122 v -1.44 h 7.2 v 1.44 z"
         id="path2317"
         style="stroke:#61afef;stroke-opacity:1;stroke-linejoin:round;stroke-width:1.6;stroke-dasharray:none;stroke-linecap:round" />
      <path
         d="m 86.599979,92.926 3.3,-8.664 h 1.5 l -3.288,8.664 z"
         id="path2319"
         style="stroke:#61afef;stroke-opacity:1;stroke-linejoin:round;stroke-width:1.6;stroke-dasharray:none;stroke-linecap:round" />
      <path
         d="m 127.4,92.926 -3.3,-8.664 h -1.5 l 3.288,8.664 z"
         id="path2321"
         style="stroke:#61afef;stroke-opacity:1;stroke-linejoin:round;stroke-width:1.6;stroke-dasharray:none;stroke-linecap:round" />
      <path
         d="m 129.80001,92.926 3.3,-8.664 h 1.5 l -3.288,8.664 z"
         id="path2323"
         style="stroke:#61afef;stroke-opacity:1;stroke-linejoin:round;stroke-width:1.6;stroke-dasharray:none;stroke-linecap:round" />
      <path
         d="m 135.80001,95.122 v -1.44 h 7.2 v 1.44 z"
         id="path2325"
         style="stroke:#61afef;stroke-opacity:1;stroke-linejoin:round;stroke-width:1.6;stroke-dasharray:none;stroke-linecap:round" />
      <path
         d="m 144.20002,92.926 3.3,-8.664 h 1.5 l -3.288,8.664 z"
         id="path2327"
         style="stroke:#61afef;stroke-opacity:1;stroke-linejoin:round;stroke-width:1.6;stroke-dasharray:none;stroke-linecap:round" />
      <path
         d="m 156.20001,92.926 -3.3,-8.664 h -1.5 l 3.288,8.664 z"
         id="path2329"
         style="stroke:#61afef;stroke-opacity:1;stroke-linejoin:round;stroke-width:1.6;stroke-dasharray:none;stroke-linecap:round" />
      <path
         d="m 158.60002,92.926 3.3,-8.664 h 1.5 l -3.288,8.664 z"
         id="path2331"
         style="stroke:#61afef;stroke-opacity:1;stroke-linejoin:round;stroke-width:1.6;stroke-dasharray:none;stroke-linecap:round" />
      <path
         d="m 164.60004,95.122 v -1.44 h 7.2 v 1.44 z"
         id="path2333"
         style="stroke:#61afef;stroke-opacity:1;stroke-linejoin:round;stroke-width:1.6;stroke-dasharray:none;stroke-linecap:round" />
      <path
         d="m 173.00003,92.926 3.3,-8.664 h 1.5 l -3.288,8.664 z"
         id="path2335"
         style="stroke:#61afef;stroke-opacity:1;stroke-linejoin:round;stroke-width:1.6;stroke-dasharray:none;stroke-linecap:round" />
      <path
         d="m 182.56403,85.606 q -0.192,-0.144 -0.468,-0.384 -0.264,-0.24 -0.552,-0.504 -0.276,-0.264 -0.528,-0.504 -0.24,-0.252 -0.384,-0.42 v -0.108 h 1.896 q 0.144,0.252 0.36,0.588 0.216,0.336 0.444,0.66 0.228,0.312 0.384,0.516 v 0.156 z"
         id="path2337"
         style="stroke:#61afef;stroke-opacity:1;stroke-linejoin:round;stroke-width:1.6;stroke-dasharray:none;stroke-linecap:round" />
      <path
         d="m 187.40004,92.926 3.3,-8.664 h 1.5 l -3.288,8.664 z"
         id="path2339"
         style="stroke:#61afef;stroke-opacity:1;stroke-linejoin:round;stroke-width:1.6;stroke-dasharray:none;stroke-linecap:round" />
      <path
         d="m 193.40005,95.122 v -1.44 h 7.2 v 1.44 z"
         id="path2341"
         style="stroke:#61afef;stroke-opacity:1;stroke-linejoin:round;stroke-width:1.6;stroke-dasharray:none;stroke-linecap:round" />
      <path
         d="m 200.60005,95.122 v -1.44 h 7.2 v 1.44 z"
         id="path2343"
         style="stroke:#61afef;stroke-opacity:1;stroke-linejoin:round;stroke-width:1.6;stroke-dasharray:none;stroke-linecap:round" />
      <path
         d="m 207.80005,95.122 v -1.44 h 7.2 v 1.44 z"
         id="path2345"
         style="stroke:#61afef;stroke-opacity:1;stroke-linejoin:round;stroke-width:1.6;stroke-dasharray:none;stroke-linecap:round" />
      <path
         d="m 216.20006,92.926 3.3,-8.664 h 1.5 l -3.288,8.664 z"
         id="path2347"
         style="stroke:#61afef;stroke-opacity:1;stroke-linejoin:round;stroke-width:1.6;stroke-dasharray:none;stroke-linecap:round" />
      <path
         d="m 223.22007,91.558 v -1.404 l 3.336,-1.548 -3.336,-1.644 v -1.416 l 5.16,2.664 v 0.84 z"
         id="path2349"
         style="stroke:#61afef;stroke-opacity:1;stroke-linejoin:round;stroke-width:1.6;stroke-dasharray:none;stroke-linecap:round" />
      <path
         d="m 242.60007,92.926 -3.3,-8.664 h -1.5 l 3.288,8.664 z"
         id="path2351"
         style="stroke:#61afef;stroke-opacity:1;stroke-linejoin:round;stroke-width:1.6;stroke-dasharray:none;stroke-linecap:round" />
      <path
         d="m 201.80005,107.926 3.3,-8.664 h 1.5 l -3.288,8.664 z"
         id="path2353"
         style="stroke:#61afef;stroke-opacity:1;stroke-linejoin:round;stroke-width:1.6;stroke-dasharray:none;stroke-linecap:round" />
      <path
         d="m 213.80005,107.926 -3.3,-8.664 h -1.5 l 3.288,8.664 z"
         id="path2355"
         style="stroke:#61afef;stroke-opacity:1;stroke-linejoin:round;stroke-width:1.6;stroke-dasharray:none;stroke-linecap:round" />
      <path
         d="m 215.00006,110.122 v -1.44 h 7.2 v 1.44 z"
         id="path2357"
         style="stroke:#61afef;stroke-opacity:1;stroke-linejoin:round;stroke-width:1.6;stroke-dasharray:none;stroke-linecap:round" />
      <path
         d="m 222.20007,110.122 v -1.44 h 7.2 v 1.44 z"
         id="path2359"
         style="stroke:#61afef;stroke-opacity:1;stroke-linejoin:round;stroke-width:1.6;stroke-dasharray:none;stroke-linecap:round" />
      <path
         d="m 229.40007,110.122 v -1.44 h 7.2 v 1.44 z"
         id="path2361"
         style="stroke:#61afef;stroke-opacity:1;stroke-linejoin:round;stroke-width:1.6;stroke-dasharray:none;stroke-linecap:round" />
      <path
         d="m 237.80007,107.926 3.3,-8.664 h 1.5 l -3.288,8.664 z"
         id="path2363"
         style="stroke:#61afef;stroke-opacity:1;stroke-linejoin:round;stroke-width:1.6;stroke-dasharray:none;stroke-linecap:round" />
      <path
         d="m 206.60005,122.926 -3.3,-8.664 h -1.5 l 3.288,8.664 z"
         id="path2365"
         style="stroke:#61afef;stroke-opacity:1;stroke-linejoin:round;stroke-width:1.6;stroke-dasharray:none;stroke-linecap:round" />
      <path
         d="m 209.00005,122.926 3.3,-8.664 h 1.5 l -3.288,8.664 z"
         id="path2367"
         style="stroke:#61afef;stroke-opacity:1;stroke-linejoin:round;stroke-width:1.6;stroke-dasharray:none;stroke-linecap:round" />
      <path
         d="m 215.00006,125.122 v -1.44 h 7.2 v 1.44 z"
         id="path2369"
         style="stroke:#61afef;stroke-opacity:1;stroke-linejoin:round;stroke-width:1.6;stroke-dasharray:none;stroke-linecap:round" />
      <path
         d="m 222.20007,125.122 v -1.44 h 7.2 v 1.44 z"
         id="path2371"
         style="stroke:#61afef;stroke-opacity:1;stroke-linejoin:round;stroke-width:1.6;stroke-dasharray:none;stroke-linecap:round" />
      <path
         d="m 230.60007,122.926 3.3,-8.664 h 1.5 l -3.288,8.664 z"
         id="path2373"
         style="stroke:#61afef;stroke-opacity:1;stroke-linejoin:round;stroke-width:1.6;stroke-dasharray:none;stroke-linecap:round" />
    </g>
  </g>
</svg>
