<?xml version="1.0" encoding="UTF-8" standalone="no"?>
<!-- Created with Inkscape (http://www.inkscape.org/) -->

<svg
   width="64"
   height="64"
   viewBox="0 0 64 64"
   version="1.1"
   id="svg5"
   inkscape:version="1.2.2 (b0a8486541, 2022-12-01)"
   sodipodi:docname="logo.svg"
   xmlns:inkscape="http://www.inkscape.org/namespaces/inkscape"
   xmlns:sodipodi="http://sodipodi.sourceforge.net/DTD/sodipodi-0.dtd"
   xmlns="http://www.w3.org/2000/svg"
   xmlns:svg="http://www.w3.org/2000/svg">
  <sodipodi:namedview
     id="namedview7"
     pagecolor="#505050"
     bordercolor="#eeee44"
     borderopacity="1"
     inkscape:pageshadow="0"
     inkscape:pageopacity="0"
     inkscape:pagecheckerboard="0"
     inkscape:document-units="px"
     showgrid="false"
     units="px"
     width="793.70081px"
     inkscape:showpageshadow="0"
     inkscape:deskcolor="#505050"
     inkscape:zoom="6.8679684"
     inkscape:cx="27.664658"
     inkscape:cy="92.4582"
     inkscape:window-width="2560"
     inkscape:window-height="1568"
     inkscape:window-x="0"
     inkscape:window-y="32"
     inkscape:window-maximized="1"
     inkscape:current-layer="layer1" />
  <defs
     id="defs2" />
  <g
     inkscape:label="Layer 1"
     inkscape:groupmode="layer"
     id="layer1">
    <g
       aria-label=" __  __    
/\ \/\ \   
\ \ \_\ \  
 \/`____ \ 
  `/___/&gt; \
     /\___/
     \/__/             "
       transform="matrix(0.99822993,0,0,1.0017732,0.89999285,-0.23532195)"
       id="text110"
       style="font-weight:bold;font-size:7.01241px;line-height:1.25;font-family:monospace;-inkscape-font-specification:'monospace Bold';fill:#61afef;stroke-width:1.00177;stroke:#61afef;stroke-opacity:1">
      <path
         d="M 12.221635,6.3024701 V 5.4609809 h 4.207446 v 0.8414892 z"
         id="path1054"
         style="stroke:#61afef;stroke-opacity:1" />
      <path
         d="M 16.429084,6.3024701 V 5.4609809 h 4.207446 v 0.8414892 z"
         id="path1056"
         style="stroke:#61afef;stroke-opacity:1" />
      <path
         d="M 29.051431,6.3024701 V 5.4609809 h 4.207446 v 0.8414892 z"
         id="path1058"
         style="stroke:#61afef;stroke-opacity:1" />
      <path
         d="M 33.25888,6.3024701 V 5.4609809 h 4.207446 v 0.8414892 z"
         id="path1060"
         style="stroke:#61afef;stroke-opacity:1" />
      <path
         d="M 8.7154269,13.784712 10.64384,8.7217516 h 0.876551 L 9.5989906,13.784712 Z"
         id="path1062"
         style="stroke:#61afef;stroke-opacity:1" />
      <path
         d="M 15.72784,13.784712 13.799427,8.7217516 h -0.876551 l 1.9214,5.0629604 z"
         id="path1064"
         style="stroke:#61afef;stroke-opacity:1" />
      <path
         d="M 24.142738,13.784712 22.214325,8.7217516 h -0.876551 l 1.9214,5.0629604 z"
         id="path1066"
         style="stroke:#61afef;stroke-opacity:1" />
      <path
         d="m 25.545223,13.784712 1.928413,-5.0629604 h 0.876551 l -1.921401,5.0629604 z"
         id="path1068"
         style="stroke:#61afef;stroke-opacity:1" />
      <path
         d="M 32.557636,13.784712 30.629223,8.7217516 h -0.876551 l 1.9214,5.0629604 z"
         id="path1070"
         style="stroke:#61afef;stroke-opacity:1" />
      <path
         d="M 40.972534,13.784712 39.044121,8.7217516 H 38.16757 l 1.9214,5.0629604 z"
         id="path1072"
         style="stroke:#61afef;stroke-opacity:1" />
      <path
         d="M 11.520391,22.550224 9.5919782,17.487264 H 8.7154269 l 1.9214001,5.06296 z"
         id="path1074"
         style="stroke:#61afef;stroke-opacity:1" />
      <path
         d="m 19.935289,22.550224 -1.928413,-5.06296 h -0.876551 l 1.9214,5.06296 z"
         id="path1076"
         style="stroke:#61afef;stroke-opacity:1" />
      <path
         d="m 28.350187,22.550224 -1.928413,-5.06296 h -0.876551 l 1.9214,5.06296 z"
         id="path1078"
         style="stroke:#61afef;stroke-opacity:1" />
      <path
         d="m 29.051431,23.833496 v -0.84149 h 4.207446 v 0.84149 z"
         id="path1080"
         style="stroke:#61afef;stroke-opacity:1" />
      <path
         d="m 36.765085,22.550224 -1.928413,-5.06296 h -0.876551 l 1.9214,5.06296 z"
         id="path1082"
         style="stroke:#61afef;stroke-opacity:1" />
      <path
         d="m 45.179983,22.550224 -1.928413,-5.06296 h -0.876551 l 1.9214,5.06296 z"
         id="path1084"
         style="stroke:#61afef;stroke-opacity:1" />
      <path
         d="m 15.72784,31.315737 -1.928413,-5.06296 h -0.876551 l 1.9214,5.06296 z"
         id="path1086"
         style="stroke:#61afef;stroke-opacity:1" />
      <path
         d="m 17.130325,31.315737 1.928413,-5.06296 h 0.876551 l -1.9214,5.06296 z"
         id="path1088"
         style="stroke:#61afef;stroke-opacity:1" />
      <path
         d="m 22.719219,27.038167 q -0.112199,-0.08415 -0.273484,-0.224397 -0.154273,-0.140248 -0.322571,-0.294521 -0.161286,-0.154273 -0.308546,-0.294522 -0.140249,-0.14726 -0.224397,-0.245434 v -0.06311 h 1.10796 q 0.08415,0.147261 0.210373,0.343608 0.126223,0.196348 0.259459,0.385683 0.133236,0.182323 0.224397,0.301534 v 0.09116 z"
         id="path1090"
         style="stroke:#61afef;stroke-opacity:1" />
      <path
         d="m 24.843982,32.599008 v -0.841489 h 4.207446 v 0.841489 z"
         id="path1092"
         style="stroke:#61afef;stroke-opacity:1" />
      <path
         d="m 29.051431,32.599008 v -0.841489 h 4.207446 v 0.841489 z"
         id="path1094"
         style="stroke:#61afef;stroke-opacity:1" />
      <path
         d="m 33.25888,32.599008 v -0.841489 h 4.207446 v 0.841489 z"
         id="path1096"
         style="stroke:#61afef;stroke-opacity:1" />
      <path
         d="m 37.466329,32.599008 v -0.841489 h 4.207446 v 0.841489 z"
         id="path1098"
         style="stroke:#61afef;stroke-opacity:1" />
      <path
         d="m 49.387434,31.315737 -1.928413,-5.06296 h -0.876552 l 1.921401,5.06296 z"
         id="path1100"
         style="stroke:#61afef;stroke-opacity:1" />
      <path
         d="M 18.51177,35.80368 Q 18.399571,35.71953 18.238286,35.579283 18.084013,35.439034 17.915715,35.284761 17.754429,35.130488 17.607169,34.99024 17.466921,34.842979 17.382772,34.744806 v -0.06311 h 1.10796 q 0.08415,0.147261 0.210373,0.343608 0.126223,0.196348 0.259459,0.385683 0.133236,0.182322 0.224397,0.301533 v 0.09116 z"
         id="path1102"
         style="stroke:#61afef;stroke-opacity:1" />
      <path
         d="m 21.337774,40.08125 1.928413,-5.06296 h 0.876551 l -1.921401,5.06296 z"
         id="path1104"
         style="stroke:#61afef;stroke-opacity:1" />
      <path
         d="m 24.843982,41.364521 v -0.841489 h 4.207446 v 0.841489 z"
         id="path1106"
         style="stroke:#61afef;stroke-opacity:1" />
      <path
         d="m 29.051431,41.364521 v -0.841489 h 4.207446 v 0.841489 z"
         id="path1108"
         style="stroke:#61afef;stroke-opacity:1" />
      <path
         d="m 33.25888,41.364521 v -0.841489 h 4.207446 v 0.841489 z"
         id="path1110"
         style="stroke:#61afef;stroke-opacity:1" />
      <path
         d="m 38.16757,40.08125 1.928412,-5.06296 h 0.876552 l -1.921401,5.06296 z"
         id="path1112"
         style="stroke:#61afef;stroke-opacity:1" />
      <path
         d="m 42.269832,39.281835 v -0.820452 l 1.94945,-0.904601 -1.94945,-0.9607 v -0.827464 l 3.015337,1.556755 v 0.490868 z"
         id="path1114"
         style="stroke:#61afef;stroke-opacity:1" />
      <path
         d="m 53.594881,40.08125 -1.928413,-5.06296 h -0.876551 l 1.9214,5.06296 z"
         id="path1116"
         style="stroke:#61afef;stroke-opacity:1" />
      <path
         d="m 29.752672,48.846763 1.928413,-5.062961 h 0.876551 l -1.921401,5.062961 z"
         id="path1118"
         style="stroke:#61afef;stroke-opacity:1" />
      <path
         d="m 36.765085,48.846763 -1.928413,-5.062961 h -0.876551 l 1.9214,5.062961 z"
         id="path1120"
         style="stroke:#61afef;stroke-opacity:1" />
      <path
         d="m 37.466329,50.130034 v -0.84149 h 4.207446 v 0.84149 z"
         id="path1122"
         style="stroke:#61afef;stroke-opacity:1" />
      <path
         d="m 41.673778,50.130034 v -0.84149 h 4.207446 v 0.84149 z"
         id="path1124"
         style="stroke:#61afef;stroke-opacity:1" />
      <path
         d="m 45.881228,50.130034 v -0.84149 h 4.207447 v 0.84149 z"
         id="path1126"
         style="stroke:#61afef;stroke-opacity:1" />
      <path
         d="m 50.789917,48.846763 1.928412,-5.062961 h 0.876552 l -1.921401,5.062961 z"
         id="path1128"
         style="stroke:#61afef;stroke-opacity:1" />
      <path
         d="m 32.557636,57.612275 -1.928413,-5.06296 h -0.876551 l 1.9214,5.06296 z"
         id="path1130"
         style="stroke:#61afef;stroke-opacity:1" />
      <path
         d="m 33.960121,57.612275 1.928412,-5.06296 h 0.876552 l -1.921401,5.06296 z"
         id="path1132"
         style="stroke:#61afef;stroke-opacity:1" />
      <path
         d="m 37.466329,58.895546 v -0.841489 h 4.207446 v 0.841489 z"
         id="path1134"
         style="stroke:#61afef;stroke-opacity:1" />
      <path
         d="m 41.673778,58.895546 v -0.841489 h 4.207446 v 0.841489 z"
         id="path1136"
         style="stroke:#61afef;stroke-opacity:1" />
      <path
         d="m 46.582469,57.612275 1.928413,-5.06296 h 0.876552 l -1.921401,5.06296 z"
         id="path1138"
         style="stroke:#61afef;stroke-opacity:1" />
    </g>
  </g>
</svg>
