<?xml version="1.0" encoding="UTF-8" standalone="no"?>
<!-- Created with Inkscape (http://www.inkscape.org/) -->

<svg
   width="256"
   height="256"
   viewBox="0 0 256 256"
   version="1.1"
   id="svg5"
   inkscape:version="1.2.2 (b0a8486541, 2022-12-01)"
   sodipodi:docname="logo_yellow.svg"
   xmlns:inkscape="http://www.inkscape.org/namespaces/inkscape"
   xmlns:sodipodi="http://sodipodi.sourceforge.net/DTD/sodipodi-0.dtd"
   xmlns="http://www.w3.org/2000/svg"
   xmlns:svg="http://www.w3.org/2000/svg">
  <sodipodi:namedview
     id="namedview7"
     pagecolor="#505050"
     bordercolor="#eeee44"
     borderopacity="1"
     inkscape:pageshadow="0"
     inkscape:pageopacity="0"
     inkscape:pagecheckerboard="0"
     inkscape:document-units="px"
     showgrid="false"
     units="px"
     width="793.70081px"
     inkscape:showpageshadow="0"
     inkscape:deskcolor="#505050"
     inkscape:zoom="0.921875"
     inkscape:cx="-30.915254"
     inkscape:cy="216.40678"
     inkscape:window-width="2560"
     inkscape:window-height="1408"
     inkscape:window-x="2360"
     inkscape:window-y="32"
     inkscape:window-maximized="0"
     inkscape:current-layer="layer1" />
  <defs
     id="defs2" />
  <g
     inkscape:label="Layer 1"
     inkscape:groupmode="layer"
     id="layer1">
    <g
       id="g688"
       transform="translate(304.79013,184.02209)">
      <path
         style="fill:#c678dd;fill-opacity:1;stroke:#000000;stroke-width:4.02007;stroke-linejoin:round;paint-order:fill markers stroke"
         d="m -252.38436,-106.88151 c 0,0 -12.67339,-57.99842 -17.43724,-73.08399 -4.76385,-15.08556 36.13689,58.1688 36.13689,58.1688"
         id="path136"
         sodipodi:nodetypes="csc" />
      <path
         style="fill:#e5c07b;fill-opacity:1;stroke:#000000;stroke-width:4.02007;stroke-linecap:round;stroke-linejoin:round;stroke-dasharray:none;paint-order:fill markers stroke"
         d="m -114.16487,-85.912504 c 0,0 41.742805,27.875101 59.683103,64.1816 -27.508538,82.812593 -120.425783,91.698785 -120.425783,91.698785 0,0 -16.28131,-25.825634 -34.24702,-30.878478 -17.96556,-5.05282 -20.77269,-8.982814 -58.38836,-5.614249 0,0 -37.05416,-1.122869 -30.87851,-43.791297 0,0 1.6844,-10.667108 19.64996,-30.878451 17.96571,-20.211362 2.80713,-43.229857 26.38712,-65.686916 23.57983,-22.45707 21.56099,-20.38009 83.09109,-22.45707 66.52895,-2.24571 85.329806,-2.71391 71.722123,26.10634 -13.402503,28.38594 -53.756423,25.68526 -78.459143,29.474896"
         id="path137"
         sodipodi:nodetypes="cccssssccsc" />
      <path
         style="fill:none;stroke:#000000;stroke-width:4.02007;stroke-linecap:round;stroke-linejoin:round;paint-order:stroke fill markers"
         d="m -299.07872,0.78532818 c 0,0 12.04372,-4.99005878 18.19704,-14.71627818"
         id="path138" />
      <path
         style="fill:none;stroke:#000000;stroke-width:4.02007;stroke-linecap:round;stroke-linejoin:round;paint-order:stroke fill markers"
         d="m -297.60818,10.528965 c 0,0 10.17617,-2.8240715 18.11596,2.138314"
         id="path139" />
      <path
         style="fill:#ffffff;stroke:#000000;stroke-width:4.02007;stroke-linejoin:round;paint-order:fill markers stroke"
         d="m -203.27033,-60.180108 c 0,0 -29.97271,-5.954843 -41.88233,4.366868 -11.90963,10.321706 -11.90963,19.253946 -6.55033,24.216304 5.35929,4.962339 34.93499,5.359352 45.65373,-1.786469 10.71858,-7.145786 18.06294,-20.444908 2.77893,-26.796703 z"
         id="path140" />
      <path
         style="fill:#000000;stroke:none;stroke-width:4.02007;stroke-linejoin:round;paint-order:stroke fill markers"
         d="m -221.33342,-50.453919 c 0,0 -14.09297,0.396998 -18.06294,4.962385 -3.96982,4.56533 -3.37438,9.527715 4.1684,8.733735 7.54279,-0.79398 21.04032,-2.778907 20.04786,-8.932239 -0.99246,-6.153333 -6.15332,-4.763881 -6.15332,-4.763881 z"
         id="path141" />
      <path
         style="fill:#c678dd;fill-opacity:1;stroke:#000000;stroke-width:4.02007;stroke-linejoin:round;paint-order:fill markers stroke"
         d="m -223.17542,-98.979837 c 0,0 25.01029,-74.633853 28.58325,-79.794703 3.57281,-5.16086 0.39686,73.44291 2.38192,80.98565 0,0 -18.65853,21.040429 -30.96517,-1.190947 z"
         id="path142" />
      <path
         style="fill:none;stroke:#000000;stroke-width:4.02007;stroke-linejoin:round;paint-order:stroke fill markers"
         d="m -215.55919,-121.44732 c 0,0 8.0316,12.97307 22.63746,0.0543"
         id="path143" />
      <path
         style="fill:none;stroke:#000000;stroke-width:4.02007;stroke-linejoin:round;paint-order:stroke fill markers"
         d="m -206.85049,-146.60147 c 0,0 2.76087,6.07278 14.05993,0.0505"
         id="path144" />
      <path
         style="fill:none;stroke:#000000;stroke-width:4.02007;stroke-linejoin:round;paint-order:stroke fill markers"
         d="m -263.12704,-153.56752 c 0,0 7.04237,0.41799 8.36222,-4.90426"
         id="path145" />
      <path
         style="fill:none;stroke:#000000;stroke-width:4.02007;stroke-linejoin:round;paint-order:stroke fill markers"
         d="m -256.26489,-122.88645 c 0,0 11.76789,1.01677 16.55744,-9.34849"
         id="path146"
         sodipodi:nodetypes="cc" />
    </g>
  </g>
</svg>
