<?xml version="1.0" encoding="UTF-8" standalone="no"?>
<!-- Created with Inkscape (http://www.inkscape.org/) -->

<svg
   width="256"
   height="256"
   viewBox="0 0 67.733333 67.733336"
   version="1.1"
   id="svg1"
   inkscape:version="1.2.2 (b0a8486541, 2022-12-01)"
   xml:space="preserve"
   sodipodi:docname="logo_blue.svg"
   xmlns:inkscape="http://www.inkscape.org/namespaces/inkscape"
   xmlns:sodipodi="http://sodipodi.sourceforge.net/DTD/sodipodi-0.dtd"
   xmlns="http://www.w3.org/2000/svg"
   xmlns:svg="http://www.w3.org/2000/svg"><sodipodi:namedview
     id="namedview1"
     pagecolor="#505050"
     bordercolor="#eeeeee"
     borderopacity="1"
     inkscape:showpageshadow="0"
     inkscape:pageopacity="0"
     inkscape:pagecheckerboard="0"
     inkscape:deskcolor="#505050"
     inkscape:document-units="mm"
     inkscape:zoom="1.3843855"
     inkscape:cx="-1.0835132"
     inkscape:cy="166.49986"
     inkscape:current-layer="layer1"
     showgrid="false"
     inkscape:window-width="2560"
     inkscape:window-height="1408"
     inkscape:window-x="2360"
     inkscape:window-y="32"
     inkscape:window-maximized="0" /><defs
     id="defs1" /><g
     inkscape:label="Layer 1"
     inkscape:groupmode="layer"
     id="layer1"
     transform="translate(1236.0805,12.002705)"><g
       id="g398"
       transform="matrix(0.38861541,0,0,0.38861541,-754.74649,-7.3382689)"><path
         style="fill:#e5c07b;fill-opacity:1;stroke:#000000;stroke-width:2.73701;stroke-linejoin:round;paint-order:fill markers stroke"
         d="m -1202.9073,40.517376 c 0,0 -8.6285,-39.4874054 -11.8719,-49.7582054 -3.2434,-10.2707896 24.6033,39.6034114 24.6033,39.6034114"
         id="path87"
         sodipodi:nodetypes="csc" /><path
         style="fill:#61afef;fill-opacity:1;stroke:#000000;stroke-width:2.737;stroke-linecap:round;stroke-linejoin:round;stroke-dasharray:none;paint-order:fill markers stroke"
         d="m -1108.8025,54.793829 c 0,0 28.42,18.978367 40.6344,43.697144 -18.7288,56.381787 -81.9902,62.431827 -81.9902,62.431827 0,0 -11.0849,-17.58302 -23.3166,-21.02318 -12.2316,-3.44014 -14.1428,-6.11582 -39.7529,-3.82238 0,0 -25.2278,-0.76449 -21.0232,-29.81469 0,0 1.1468,-7.262554 13.3784,-21.023164 12.2317,-13.76062 1.9112,-29.43244 17.9653,-44.72201 16.054,-15.28958 14.6795,-13.875496 56.5714,-15.289574 45.2953,-1.528965 58.0956,-1.847731 48.831,17.774132 -9.1249,19.326166 -36.5993,17.487449 -53.4178,20.067565"
         id="path78"
         sodipodi:nodetypes="cccssssccsc" /><path
         style="fill:none;stroke:#000000;stroke-width:2.73701;stroke-linecap:round;stroke-linejoin:round;paint-order:stroke fill markers"
         d="m -1234.6985,113.82083 c 0,0 8.1998,-3.39741 12.3892,-10.01937"
         id="path79" /><path
         style="fill:none;stroke:#000000;stroke-width:2.73701;stroke-linecap:round;stroke-linejoin:round;paint-order:stroke fill markers"
         d="m -1233.6973,120.45465 c 0,0 6.9283,-1.92273 12.334,1.45584"
         id="path80" /><path
         style="fill:#ffffff;stroke:#000000;stroke-width:2.73701;stroke-linejoin:round;paint-order:fill markers stroke"
         d="m -1169.4687,72.313366 c 0,0 -20.4065,-4.05427 -28.515,2.97312 -8.1085,7.02739 -8.1085,13.10878 -4.4597,16.48733 3.6488,3.37854 23.785,3.64884 31.0827,-1.21629 7.2976,-4.86511 12.2979,-13.91963 1.892,-18.24416 z"
         id="path81" /><path
         style="fill:#000000;stroke:none;stroke-width:2.73701;stroke-linejoin:round;paint-order:stroke fill markers"
         d="m -1181.7667,78.935306 c 0,0 -9.595,0.27029 -12.2979,3.37857 -2.7028,3.10824 -2.2974,6.48681 2.838,5.94624 5.1354,-0.54057 14.325,-1.89198 13.6493,-6.08139 -0.6757,-4.18941 -4.1894,-3.24342 -4.1894,-3.24342 z"
         id="path82" /><path
         style="fill:#e5c07b;fill-opacity:1;stroke:#000000;stroke-width:2.73701;stroke-linejoin:round;paint-order:fill markers stroke"
         d="m -1183.0208,45.897123 c 0,0 17.0279,-50.8134102 19.4605,-54.3271002 2.4325,-3.5136998 0.2702,50.0025702 1.6217,55.1379402 0,0 -12.7034,14.325074 -21.0822,-0.81084 z"
         id="path84" /><path
         style="fill:none;stroke:#000000;stroke-width:2.73701;stroke-linejoin:round;paint-order:stroke fill markers"
         d="m -1177.8354,30.600453 c 0,0 5.4682,8.83253 15.4124,0.037"
         id="path85" /><path
         style="fill:none;stroke:#000000;stroke-width:2.73701;stroke-linejoin:round;paint-order:stroke fill markers"
         d="m -1171.9062,13.474603 c 0,0 1.8797,4.13457 9.5725,0.0344"
         id="path86" /><path
         style="fill:none;stroke:#000000;stroke-width:2.73701;stroke-linejoin:round;paint-order:stroke fill markers"
         d="m -1210.2213,8.7318606 c 0,0 4.7947,0.28459 5.6933,-3.33899"
         id="path88" /><path
         style="fill:none;stroke:#000000;stroke-width:2.73701;stroke-linejoin:round;paint-order:stroke fill markers"
         d="m -1205.5493,29.620641 c 0,0 8.012,0.69225 11.2729,-6.36479"
         id="path89"
         sodipodi:nodetypes="cc" /></g></g></svg>
