<?xml version="1.0" encoding="UTF-8" standalone="no"?>
<!-- Created with Inkscape (http://www.inkscape.org/) -->

<svg
   width="256"
   height="256"
   viewBox="0 0 256 256"
   version="1.1"
   id="svg5"
   inkscape:version="1.2.2 (b0a8486541, 2022-12-01)"
   sodipodi:docname="logo_pink.svg"
   xmlns:inkscape="http://www.inkscape.org/namespaces/inkscape"
   xmlns:sodipodi="http://sodipodi.sourceforge.net/DTD/sodipodi-0.dtd"
   xmlns="http://www.w3.org/2000/svg"
   xmlns:svg="http://www.w3.org/2000/svg">
  <sodipodi:namedview
     id="namedview7"
     pagecolor="#505050"
     bordercolor="#eeee44"
     borderopacity="1"
     inkscape:pageshadow="0"
     inkscape:pageopacity="0"
     inkscape:pagecheckerboard="0"
     inkscape:document-units="px"
     showgrid="false"
     units="px"
     width="793.70081px"
     inkscape:showpageshadow="0"
     inkscape:deskcolor="#505050"
     inkscape:zoom="1.84375"
     inkscape:cx="93.016949"
     inkscape:cy="196.61017"
     inkscape:window-width="2560"
     inkscape:window-height="1408"
     inkscape:window-x="2360"
     inkscape:window-y="32"
     inkscape:window-maximized="0"
     inkscape:current-layer="layer1" />
  <defs
     id="defs2" />
  <g
     inkscape:label="Layer 1"
     inkscape:groupmode="layer"
     id="layer1">
    <g
       id="g924"
       transform="matrix(0.3886154,0,0,0.3886154,76.992596,87.109752)">
      <path
         style="fill:#e5c07b;fill-opacity:1;stroke:#000000;stroke-width:10.3446;stroke-linejoin:round;paint-order:fill markers stroke"
         d="m -63.267738,-25.653049 c 0,0 -32.61173,-149.243741 -44.870252,-188.062511 -12.25852,-38.81873 92.988929,149.682187 92.988929,149.682187"
         id="path147"
         sodipodi:nodetypes="csc" />
      <path
         style="fill:#c678dd;fill-opacity:1;stroke:#000000;stroke-width:10.3446;stroke-linecap:round;stroke-linejoin:round;stroke-dasharray:none;paint-order:fill markers stroke"
         d="m 292.40395,28.305199 c 0,0 107.41418,71.729261 153.57884,165.154561 -70.78602,213.09652 -309.88423,235.96281 -309.88423,235.96281 0,0 -41.895682,-66.45551 -88.12573,-79.45768 -46.2296699,-13.00211 -53.453103,-23.11492 -150.24726,-14.4468 0,0 -95.34916,-2.88941 -79.45776,-112.68544 0,0 4.33436,-27.44902 50.56403,-79.45763 46.230122,-52.008641 7.22343,-111.240717 67.900422,-169.028069 60.6765359,-57.78739 55.4815752,-52.44282 213.813168,-57.787367 171.19484,-5.778765 219.57392,-6.98355 184.55811,67.177822 -34.48781,73.043778 -138.32806,66.094297 -201.89405,75.845916"
         id="path148"
         sodipodi:nodetypes="cccssssccsc" />
      <path
         style="fill:none;stroke:#000000;stroke-width:10.3446;stroke-linecap:round;stroke-linejoin:round;paint-order:stroke fill markers"
         d="m -183.42353,251.39938 c 0,0 30.99137,-12.84061 46.82532,-37.86849"
         id="path149" />
      <path
         style="fill:none;stroke:#000000;stroke-width:10.3446;stroke-linecap:round;stroke-linejoin:round;paint-order:stroke fill markers"
         d="m -179.63947,276.47208 c 0,0 26.1857,-7.26701 46.61669,5.50239"
         id="path150" />
      <path
         style="fill:#ffffff;stroke:#000000;stroke-width:10.3446;stroke-linejoin:round;paint-order:fill markers stroke"
         d="m 63.114373,94.520773 c 0,0 -77.12693,-15.323226 -107.773229,11.236987 -30.6463,26.56022 -30.6463,49.545 -16.855559,62.31432 13.79074,12.76929 89.896064,13.79089 117.477922,-4.597 27.581481,-18.38782 46.480253,-52.60963 7.150866,-68.954307 z"
         id="path151" />
      <path
         style="fill:#000000;stroke:none;stroke-width:10.3446;stroke-linejoin:round;paint-order:stroke fill markers"
         d="m 16.633743,119.54858 c 0,0 -36.264567,1.02157 -46.480253,12.7694 -10.215307,11.74768 -8.683086,24.51707 10.7263,22.47397 19.40938586,-2.04309 54.141733,-7.15079 51.587906,-22.98478 -2.553827,-15.83399 -15.833953,-12.25859 -15.833953,-12.25859 z"
         id="path152" />
      <path
         style="fill:#e5c07b;fill-opacity:1;stroke:#000000;stroke-width:10.3446;stroke-linejoin:round;paint-order:fill markers stroke"
         d="m 11.893837,-5.3201469 c 0,0 64.357418,-192.0506831 73.551497,-205.3307731 9.193701,-13.28013 1.021229,188.986093 6.12926,208.3953653 0,0 -48.012851,54.1420127 -79.680757,-3.0645922 z"
         id="path153" />
      <path
         style="fill:none;stroke:#000000;stroke-width:10.3446;stroke-linejoin:round;paint-order:stroke fill markers"
         d="m 31.4922,-63.134333 c 0,0 20.667213,33.382791 58.251591,0.139842"
         id="path154" />
      <path
         style="fill:none;stroke:#000000;stroke-width:10.3446;stroke-linejoin:round;paint-order:stroke fill markers"
         d="m 53.901775,-127.86196 c 0,0 7.104378,15.62673 36.179528,0.13002"
         id="path155" />
      <path
         style="fill:none;stroke:#000000;stroke-width:10.3446;stroke-linejoin:round;paint-order:stroke fill markers"
         d="m -90.911203,-145.78728 c 0,0 18.121701,1.07561 21.517984,-12.61981"
         id="path156" />
      <path
         style="fill:none;stroke:#000000;stroke-width:10.3446;stroke-linejoin:round;paint-order:stroke fill markers"
         d="m -73.25325,-66.83756 c 0,0 30.281575,2.616378 42.606237,-24.055899"
         id="path157"
         sodipodi:nodetypes="cc" />
    </g>
  </g>
</svg>
